<svg width="25" height="24" viewBox="0 0 25 24" fill="none" xmlns="http://www.w3.org/2000/svg">
<path d="M18.4297 5H8.81124C7.84939 5 7.06243 5.8 7.06243 6.77778V19.2222C7.06243 20.2 7.84939 21 8.81124 21H18.4297C19.3915 21 20.1785 20.2 20.1785 19.2222V6.77778C20.1785 5.8 19.3915 5 18.4297 5ZM18.1606 6C18.7156 6 19.1696 6.45 19.1696 7V19C19.1696 19.55 18.7156 20 18.1606 20H9.08029C8.52538 20 8.07136 19.55 8.07136 19V7C8.07136 6.45 8.52538 6 9.08029 6H18.1606ZM15.6428 2C15.9189 2 16.1428 2.22386 16.1428 2.5C16.1428 2.77614 15.9189 3 15.6428 3H5.04364L5.04457 15.4955C5.04457 15.7741 4.81872 16 4.54011 16C4.2615 16 4.03564 15.7741 4.03564 15.4955V2.92227L4.03964 2.922L4.04237 2.88338C4.10014 2.38604 4.52281 2 5.03564 2H15.6428Z" fill="black"/>
</svg>
