<svg width="150" height="150" viewBox="0 0 150 150" fill="none" xmlns="http://www.w3.org/2000/svg">
<path d="M102.857 94.3032C102.72 94.166 102.515 94.0974 102.309 93.9603C102.995 93.8917 103.475 93.6174 103.817 93.2746C104.16 92.9317 104.297 92.5203 104.297 91.9717C104.297 91.5603 104.229 91.2174 104.023 90.8746C103.817 90.5317 103.543 90.326 103.2 90.1889C102.857 90.0517 102.377 89.9832 101.76 89.9832H98.606V97.1146H99.566V93.9603H100.663C100.937 93.9603 101.075 93.9603 101.212 93.9603C101.349 94.0289 101.486 94.0289 101.623 94.166C101.76 94.2346 101.897 94.4403 102.103 94.646C102.309 94.8517 102.515 95.1946 102.789 95.606L103.749 97.1146H104.915L103.68 95.1946C103.406 94.8517 103.132 94.5774 102.857 94.3032ZM101.555 93.206H99.4974V90.806H101.76C102.309 90.806 102.652 90.9432 102.926 91.1489C103.2 91.3546 103.269 91.6289 103.269 91.9717C103.269 92.1774 103.2 92.3832 103.063 92.5889C102.926 92.7946 102.72 92.9317 102.515 93.0003C102.377 93.1374 102.035 93.206 101.555 93.206Z" fill="#374E5A"/>
<path d="M101.349 86.4858C97.3716 86.4858 94.2173 89.7087 94.2173 93.6173C94.2173 97.5944 97.4401 100.749 101.349 100.749C105.326 100.749 108.48 97.5258 108.48 93.6173C108.549 89.7087 105.326 86.4858 101.349 86.4858ZM101.349 99.9944C97.8516 99.9944 94.9716 97.1144 94.9716 93.6173C94.9716 90.1201 97.8516 87.2401 101.349 87.2401C104.846 87.2401 107.726 90.1201 107.726 93.6173C107.726 97.1144 104.846 99.9944 101.349 99.9944Z" fill="#374E5A"/>
<path d="M18.857 71.537L20.0227 64.817H46.9027L57.5313 53.5713H22.0113L23.0398 47.6741L51.497 47.6056L63.7027 34.7827L10.0798 34.8513L1.23413 84.2227H45.3256L57.3941 71.537H18.857Z" fill="#374E5A"/>
<path d="M82.9027 108.703C73.8513 108.36 70.8342 104.04 77.1427 96.4286C84.5485 87.4458 123.977 47.4686 130.697 40.6115C135.634 35.5372 133.577 32.3143 132.754 31.4229C128.297 26.5543 91.6799 36.8401 89.4856 30.6001C88.7313 28.4743 88.5256 22.7829 91.6799 19.2858C88.6627 20.7258 80.0228 28.4743 77.7599 30.8743C75.6342 33.1372 74.057 35.0572 72.9599 36.6343C68.9827 42.4629 74.1942 44.7943 77.417 44.7258C82.9713 44.5201 95.7256 41.9143 101.623 41.2286C113.486 39.7886 107.314 45.5486 105.943 46.6458C93.3256 56.7943 64.5942 79.9715 58.697 84.4972C46.4913 93.9601 30.6513 105.686 25.9885 112.68C18.5828 123.857 24.5485 130.097 35.3828 131.606C44.7085 132.909 102.788 122.074 148.388 107.537C141.463 107.469 100.663 109.32 82.9027 108.703Z" fill="url(#paint0_linear)"/>
<path d="M17.5543 69.4115L18.72 62.6915H45.6686L56.2971 51.4458H20.7086L21.7371 45.5487L50.2629 45.4801L62.4 32.6572L8.77714 32.7258L0 82.0972H44.0229L56.16 69.4115H17.5543Z" fill="url(#paint1_linear)"/>
<path d="M80.9143 35.8115L79.5428 35.0572C81.7371 31.08 84.8228 27.0343 84.96 26.8286L86.1943 27.7886C86.1943 27.8572 83.04 31.9715 80.9143 35.8115Z" fill="url(#paint2_linear)"/>
<path d="M51.0855 118.852C48.2055 118.852 45.8741 118.715 44.2284 118.509L44.4341 117C46.0798 117.206 48.2741 117.275 51.1541 117.275C54.377 117.275 58.4913 117.137 63.4284 116.863L63.497 118.44C58.4912 118.715 54.377 118.852 51.0855 118.852ZM78.377 116.932L78.2398 115.355C84.617 114.806 91.1998 114.257 97.2341 113.709L97.3713 115.286C91.337 115.835 84.8227 116.452 78.377 116.932ZM113.417 113.297L113.211 111.789C118.011 111.172 118.697 111.103 126.514 110.212L126.72 111.789C118.971 112.612 118.217 112.68 113.417 113.297ZM49.1655 105.137L48.137 103.972C50.6055 101.846 62.3313 92.1088 62.7427 91.6974L63.7712 92.8631C63.3598 93.2059 51.5655 103.012 49.1655 105.137ZM78.1027 80.1088L77.0741 78.9431C79.2684 77.0231 88.937 68.5888 91.4741 66.3259L92.5027 67.4917C89.9655 69.7545 80.2284 78.2574 78.1027 80.1088ZM106.971 54.4631L105.943 53.2974C113.143 46.9202 117.737 42.6688 120 40.3374L121.097 41.4345C118.834 43.7659 114.171 48.0174 106.971 54.4631ZM91.4741 38.3488L91.337 36.7717C93.5998 36.5659 96.0684 36.3602 98.6741 36.0859C102.377 35.7431 106.148 35.3317 110.263 35.0574L110.468 36.6345H110.4C106.354 36.9088 102.514 37.3202 98.8798 37.6631C96.2055 37.9374 93.737 38.2117 91.4741 38.3488Z" fill="url(#paint3_linear)"/>
<defs>
<linearGradient id="paint0_linear" x1="41.5698" y1="31.4775" x2="76.0826" y2="86.0301" gradientUnits="userSpaceOnUse">
<stop stop-color="#C7C8CA"/>
<stop offset="0.9982" stop-color="#384F5A"/>
</linearGradient>
<linearGradient id="paint1_linear" x1="2.37716" y1="54.4906" x2="415.439" y2="120.39" gradientUnits="userSpaceOnUse">
<stop offset="0.00290976" stop-color="#4FAFE2"/>
<stop offset="0.00996055" stop-color="#4DABDE"/>
<stop offset="0.0614722" stop-color="#3993C9"/>
<stop offset="0.1141" stop-color="#2682BB"/>
<stop offset="0.1675" stop-color="#1476B1"/>
<stop offset="0.2224" stop-color="#0270AC"/>
<stop offset="0.2809" stop-color="#006EAB"/>
<stop offset="0.6576" stop-color="#86CFF3"/>
<stop offset="1" stop-color="#0361AB"/>
</linearGradient>
<linearGradient id="paint2_linear" x1="92.8994" y1="58.4997" x2="19.3211" y2="-50.396" gradientUnits="userSpaceOnUse">
<stop stop-color="white"/>
<stop offset="1" stop-color="white" stop-opacity="0"/>
</linearGradient>
<linearGradient id="paint3_linear" x1="71.7127" y1="64.5764" x2="31.9055" y2="10.7622" gradientUnits="userSpaceOnUse">
<stop stop-color="white"/>
<stop offset="1" stop-color="white" stop-opacity="0"/>
</linearGradient>
</defs>
</svg>
