<svg width="90" height="90" viewBox="0 0 90 90" fill="none" xmlns="http://www.w3.org/2000/svg">
<path d="M90 45C90 69.8528 69.8528 90 45 90C20.1472 90 0 69.8528 0 45C0 20.1472 20.1472 0 45 0C69.8528 0 90 20.1472 90 45Z" fill="#3498DB" fill-opacity="0.3"/>
<path d="M80 45C80 64.33 64.33 80 45 80C25.67 80 10 64.33 10 45C10 25.67 25.67 10 45 10C64.33 10 80 25.67 80 45Z" fill="#3498DB" fill-opacity="0.5"/>
<path d="M71 45.5C71 59.5833 59.5833 71 45.5 71C31.4167 71 20 59.5833 20 45.5C20 31.4167 31.4167 20 45.5 20C59.5833 20 71 31.4167 71 45.5Z" fill="#3498DB"/>
<g filter="url(#filter0_d)">
<path d="M51.4226 31C52.6182 31 53.6007 31.9614 53.7121 33.1907L53.7226 33.4241L53.7235 38.9446C55.4884 39.2153 56.8635 40.7535 56.9904 42.6548L57 42.9426V55.9598C57 58.0981 55.4238 59.8485 53.4291 59.9907L53.1667 60H37.8333C35.8045 60 34.1437 58.3387 34.0088 56.2364L34 55.9598V42.9426C34 40.9063 35.4293 39.2218 37.2882 38.9429L53.7235 38.9446L53.7232 37.1958H37.2874L37.2877 33.4241C37.2877 32.1641 38.1999 31.1286 39.3662 31.0111L39.5877 31H51.4226Z" fill="white"/>
</g>
<defs>
<filter id="filter0_d" x="30" y="31" width="31" height="37" filterUnits="userSpaceOnUse" color-interpolation-filters="sRGB">
<feFlood flood-opacity="0" result="BackgroundImageFix"/>
<feColorMatrix in="SourceAlpha" type="matrix" values="0 0 0 0 0 0 0 0 0 0 0 0 0 0 0 0 0 0 127 0"/>
<feOffset dy="4"/>
<feGaussianBlur stdDeviation="2"/>
<feColorMatrix type="matrix" values="0 0 0 0 0 0 0 0 0 0 0 0 0 0 0 0 0 0 0.25 0"/>
<feBlend mode="normal" in2="BackgroundImageFix" result="effect1_dropShadow"/>
<feBlend mode="normal" in="SourceGraphic" in2="effect1_dropShadow" result="shape"/>
</filter>
</defs>
</svg>
