<svg width="41" height="41" viewBox="0 0 41 41" fill="none" xmlns="http://www.w3.org/2000/svg">
<mask id="mask0" mask-type="alpha" maskUnits="userSpaceOnUse" x="0" y="0" width="41" height="41">
<path d="M20.5 41C31.8218 41 41 31.8218 41 20.5C41 9.17816 31.8218 0 20.5 0C9.17816 0 0 9.17816 0 20.5C0 31.8218 9.17816 41 20.5 41Z" fill="white"/>
</mask>
<g mask="url(#mask0)">
<path d="M20.5 41C31.8218 41 41 31.8218 41 20.5C41 9.17816 31.8218 0 20.5 0C9.17816 0 0 9.17816 0 20.5C0 31.8218 9.17816 41 20.5 41Z" fill="#1C9CF6"/>
<path d="M29.7978 12C31.4567 12 32.8064 13.3497 32.8064 15.0087V26.4294C32.8064 28.0884 31.4567 29.4381 29.7978 29.4381H12.0087C10.3497 29.4381 9 28.0884 9 26.4294V15.0087C9 13.3497 10.3497 12 12.0087 12H29.7978ZM30.855 14.7627C30.5427 14.3579 29.9614 14.2828 29.5565 14.595L20.8715 21.8027L12.1873 14.595L12.1094 14.541C11.7108 14.2934 11.1816 14.3832 10.8888 14.7627C10.5766 15.1676 10.6516 15.749 11.0565 16.0612L20.3065 23.705L20.3856 23.7598C20.7103 23.9604 21.1298 23.9422 21.4373 23.705L30.6873 16.0612L30.7593 15.9996C31.1 15.677 31.1477 15.1423 30.855 14.7627Z" fill="white"/>
</g>
</svg>
