<svg width="41" height="41" viewBox="0 0 41 41" fill="none" xmlns="http://www.w3.org/2000/svg">
<mask id="mask0" mask-type="alpha" maskUnits="userSpaceOnUse" x="0" y="0" width="41" height="41">
<path d="M20.5 41C31.8218 41 41 31.8218 41 20.5C41 9.17816 31.8218 0 20.5 0C9.17816 0 0 9.17816 0 20.5C0 31.8218 9.17816 41 20.5 41Z" fill="white"/>
</mask>
<g mask="url(#mask0)">
<path d="M20.5 41C31.8218 41 41 31.8218 41 20.5C41 9.17816 31.8218 0 20.5 0C9.17816 0 0 9.17816 0 20.5C0 31.8218 9.17816 41 20.5 41Z" fill="#0078FF"/>
<path fill-rule="evenodd" clip-rule="evenodd" d="M21.6831 23.4389L18.6514 20.206L12.737 23.4389L19.2431 16.5317L22.3484 19.7651L28.189 16.5317L21.6831 23.4389ZM20.4998 8.59668C13.9258 8.59668 8.59668 13.5313 8.59668 19.6178C8.59668 23.0862 10.3276 26.1807 13.0328 28.2007V32.4031L17.0855 30.1785C18.1674 30.4783 19.3132 30.6399 20.4998 30.6399C27.074 30.6399 32.4031 25.7051 32.4031 19.6178C32.4031 13.5313 27.074 8.59668 20.4998 8.59668Z" fill="white"/>
</g>
</svg>
