<svg width="41" height="41" viewBox="0 0 41 41" fill="none" xmlns="http://www.w3.org/2000/svg">
<mask id="mask0" mask-type="alpha" maskUnits="userSpaceOnUse" x="0" y="0" width="41" height="41">
<path d="M20.5 41C31.8218 41 41 31.8218 41 20.5C41 9.17816 31.8218 0 20.5 0C9.17816 0 0 9.17816 0 20.5C0 31.8218 9.17816 41 20.5 41Z" fill="white"/>
</mask>
<g mask="url(#mask0)">
<path d="M20.5 41C31.8218 41 41 31.8218 41 20.5C41 9.17816 31.8218 0 20.5 0C9.17816 0 0 9.17816 0 20.5C0 31.8218 9.17816 41 20.5 41Z" fill="#43D854"/>
<path fill-rule="evenodd" clip-rule="evenodd" d="M20.7169 8.59668C27.1709 8.59668 32.4031 13.7889 32.4031 20.1939C32.4031 26.5975 27.1709 31.79 20.7169 31.79C18.6671 31.79 16.7415 31.2664 15.0675 30.347L8.59668 32.4031L10.7058 26.1818C9.64141 24.4341 9.0294 22.3844 9.0294 20.1939C9.0294 13.7889 14.2616 8.59668 20.7169 8.59668ZM17.4127 14.8507L17.3304 14.8499C17.1637 14.8499 16.8545 14.8996 16.8545 14.8996C16.8545 14.8996 16.2802 14.9707 16.018 15.2551C15.7558 15.539 15.0158 16.2274 15.0158 17.625C15.0158 19.0238 16.0416 20.376 16.1846 20.5645C16.3282 20.7547 18.1659 23.7185 21.0785 24.8566C23.6381 25.8565 23.9484 25.6845 24.3425 25.5955L24.4261 25.5787C24.4548 25.5738 24.4847 25.5697 24.5166 25.5668C25.0409 25.5205 26.2113 24.8797 26.4501 24.2158C26.6894 23.5519 26.6894 22.9824 26.6183 22.8648C26.5458 22.746 26.3548 22.6751 26.0693 22.5329C25.7827 22.3911 24.3735 21.7025 24.1113 21.6083C23.8489 21.5139 23.6566 21.4661 23.4668 21.7503C23.2758 22.0345 22.7266 22.6751 22.5588 22.8648C22.3922 23.0548 22.2256 23.0779 21.939 22.9359C21.6517 22.7942 20.7285 22.4928 19.6347 21.5257C18.7834 20.7712 18.2085 19.8414 18.0405 19.557C17.8741 19.273 18.0239 19.1193 18.1659 18.9775C18.2953 18.8495 18.4527 18.6456 18.596 18.48C18.7396 18.3134 18.7871 18.1945 18.8826 18.0048C18.9782 17.8148 18.9306 17.6495 18.8582 17.5072C18.7871 17.3655 18.2139 15.9665 17.9747 15.3968C17.7739 14.9163 17.5718 14.8574 17.4127 14.8507Z" fill="#FFFFFE"/>
</g>
</svg>
