<svg width="41" height="41" viewBox="0 0 41 41" fill="none" xmlns="http://www.w3.org/2000/svg">
<mask id="mask0" mask-type="alpha" maskUnits="userSpaceOnUse" x="0" y="0" width="41" height="41">
<path d="M20.5 41C31.8218 41 41 31.8218 41 20.5C41 9.17816 31.8218 0 20.5 0C9.17816 0 0 9.17816 0 20.5C0 31.8218 9.17816 41 20.5 41Z" fill="white"/>
</mask>
<g mask="url(#mask0)">
<path d="M20.5 41C31.8218 41 41 31.8218 41 20.5C41 9.17816 31.8218 0 20.5 0C9.17816 0 0 9.17816 0 20.5C0 31.8218 9.17816 41 20.5 41Z" fill="#00AFF0"/>
<path d="M26.2606 25.3227C25.3186 27.3271 22.8792 28.1241 19.6911 28.1241C16.503 28.1241 14.5225 25.9507 14.1361 24.1878C13.7497 22.4249 16.0925 21.7003 16.7445 22.9562C17.3966 24.212 18.1169 25.6062 20.0051 25.8783C21.3928 26.0783 23.6522 25.5884 23.2898 23.5116C22.9275 21.4348 18.8216 21.6763 16.8652 20.7827C14.9088 19.8892 13.7495 17.6432 14.7156 15.6904C15.6816 13.7376 18.3626 12.7167 21.744 13.1514C25.1254 13.5861 26.2122 15.6389 26.0432 17.0153C25.9756 17.5659 25.7031 17.8692 25.4005 18.0349C24.9076 18.305 24.3009 18.2192 23.8445 17.8913C23.5241 17.6612 23.1273 17.2959 22.8067 16.7495C22.1546 15.6386 21.5507 15.4213 19.9809 15.3971C18.411 15.3729 16.841 16.5562 17.9038 17.6913C18.9665 18.8262 22.4927 19.0437 24.6424 19.9613C26.792 20.879 27.2026 23.3184 26.2606 25.3227ZM31.1293 22.1377C31.2151 21.5858 31.2602 21.0205 31.2602 20.4446C31.2602 14.4028 26.3617 9.50484 20.319 9.50484C19.718 9.50484 19.1291 9.55527 18.5545 9.64843C16.0582 8.00903 12.6724 8.28601 10.4777 10.4805C8.32066 12.6372 8.02102 15.9416 9.5673 18.4241C9.4449 19.0792 9.37796 19.7538 9.37796 20.4444C9.37796 26.4863 14.2766 31.384 20.319 31.384C20.9775 31.384 21.6213 31.3226 22.2476 31.2111C24.7604 33.0019 28.2682 32.7769 30.5227 30.5228C32.8108 28.2353 33.0081 24.6569 31.1293 22.1377Z" fill="white"/>
</g>
</svg>
