<svg width="41" height="41" viewBox="0 0 41 41" fill="none" xmlns="http://www.w3.org/2000/svg">
<mask id="mask0" mask-type="alpha" maskUnits="userSpaceOnUse" x="0" y="0" width="41" height="41">
<path d="M20.5 41C31.8218 41 41 31.8218 41 20.5C41 9.17816 31.8218 0 20.5 0C9.17816 0 0 9.17816 0 20.5C0 31.8218 9.17816 41 20.5 41Z" fill="white"/>
</mask>
<g mask="url(#mask0)">
<path d="M20.5 41C31.8218 41 41 31.8218 41 20.5C41 9.17816 31.8218 0 20.5 0C9.17816 0 0 9.17816 0 20.5C0 31.8218 9.17816 41 20.5 41Z" fill="#37DC53"/>
<path d="M20.8305 9.91943C14.074 9.91943 8.59668 14.3258 8.59668 19.7613C8.60269 23.2147 10.8582 26.413 14.5401 28.1887C14.058 29.2311 13.3349 30.2086 12.4009 31.0807C14.2122 30.7736 15.9126 30.1285 17.3696 29.1954C18.493 29.464 19.6586 29.6013 20.8305 29.6031C27.5871 29.6031 33.0644 25.1968 33.0644 19.7613C33.0644 14.3258 27.5871 9.91943 20.8305 9.91943Z" fill="white"/>
</g>
</svg>
