<?xml version="1.0" encoding="UTF-8"?>
<svg width="41px" height="41px" viewBox="0 0 41 41" version="1.1" xmlns="http://www.w3.org/2000/svg" xmlns:xlink="http://www.w3.org/1999/xlink">
    <defs>
        <circle id="path-1" cx="20.5" cy="20.5" r="20.5"></circle>
    </defs>
    <g id="EzSmart" stroke="none" stroke-width="1" fill="none" fill-rule="evenodd">
        <g id="EzSmart_map_share" transform="translate(-716.000000, -548.000000)">
            <g id="photo_2020-11-05-16.19.04" transform="translate(716.000000, 548.000000)">
                <mask id="mask-2" fill="white">
                    <use xlink:href="#path-1"></use>
                </mask>
                <use id="Mask" fill="#0088CC" xlink:href="#path-1"></use>
                <path d="M10.5554095,19.6790618 L23.1604793,14.3794391 C24.4047565,13.8273951 28.6244795,12.0608542 28.6244795,12.0608542 C28.6244795,12.0608542 30.5720439,11.2879926 30.4097469,13.1649423 C30.3556478,13.9378039 29.9228557,16.6428197 29.4900637,19.568653 L28.1375884,28.2357443 C28.1375884,28.2357443 28.0293903,29.5054456 27.1097071,29.7262632 C26.1900239,29.9470808 24.6752516,28.9534015 24.4047565,28.7325839 C24.1883605,28.5669707 20.3473306,26.0827726 18.9407563,24.8682757 C18.5620633,24.5370493 18.1292712,23.8745965 18.9948553,23.1017348 C20.9424198,21.2799895 23.2686773,19.016609 24.6752516,17.5812945 C25.3244397,16.9188417 25.9736279,15.3731184 23.2686773,17.2500681 L15.6407166,22.4944864 C15.6407166,22.4944864 14.7751324,23.0465304 13.1521621,22.5496908 C11.5291917,22.0528512 9.6357263,21.3903983 9.6357263,21.3903983 C9.6357263,21.3903983 8.33735001,20.5623323 10.5554095,19.6790618 Z" id="Path" fill="#FFFFFF" fill-rule="nonzero" mask="url(#mask-2)"></path>
            </g>
        </g>
    </g>
</svg>