<svg width="41" height="41" viewBox="0 0 41 41" fill="none" xmlns="http://www.w3.org/2000/svg">
<mask id="mask0" mask-type="alpha" maskUnits="userSpaceOnUse" x="0" y="0" width="41" height="41">
<path d="M20.5 41C31.8218 41 41 31.8218 41 20.5C41 9.17816 31.8218 0 20.5 0C9.17816 0 0 9.17816 0 20.5C0 31.8218 9.17816 41 20.5 41Z" fill="white"/>
</mask>
<g mask="url(#mask0)">
<path d="M20.5 41C31.8218 41 41 31.8218 41 20.5C41 9.17816 31.8218 0 20.5 0C9.17816 0 0 9.17816 0 20.5C0 31.8218 9.17816 41 20.5 41Z" fill="#665CAC"/>
<path d="M14.7571 9.21697C18.5866 8.48627 22.4703 8.48627 26.3005 9.21697L26.3272 9.22247C28.6953 9.73867 31.2739 12.2199 31.8459 14.5322L31.853 14.5605C32.5601 17.7896 32.5601 21.0644 31.853 24.2937L31.8459 24.322C31.2739 26.6343 28.6953 29.1155 26.3272 29.6317L26.3005 29.6372C24.3858 30.0025 22.4569 30.1848 20.5288 30.1848C19.9613 30.1848 19.3938 30.1671 18.8266 30.1354L16.2115 32.8538C15.564 33.5279 14.4256 33.0691 14.4256 32.1349V29.5537C12.1459 28.9027 9.75928 26.5355 9.21094 24.3219L9.20466 24.2936C8.49754 21.0644 8.49754 17.7896 9.20466 14.5605L9.21094 14.5322C9.78371 12.2199 12.3624 9.73867 14.7296 9.22247L14.7571 9.21697ZM17.04 14.3313C16.7816 14.0315 16.4327 13.9336 16.079 14.1035C15.6258 14.3212 15.2073 14.6166 14.8821 15.0026C14.5356 15.4139 14.2064 15.9779 14.4299 16.5238C14.675 17.1224 14.9154 17.725 15.2007 18.3048C15.8023 19.5275 16.5139 20.6829 17.4232 21.7062C19.0222 23.5059 21.0408 24.6798 23.2341 25.5898C23.4458 25.6777 23.6737 25.7265 23.9129 25.7991C23.6737 25.7264 24.1209 25.735 23.9129 25.7991L24.0704 25.7555C24.2287 25.7148 24.3872 25.6782 24.5255 25.6041C25.1786 25.2532 25.6313 24.7037 25.9424 24.043C26.1123 23.6823 26.0084 23.3336 25.7066 23.0678C25.3927 22.7914 25.0539 22.5542 24.7137 22.3118C24.367 22.0647 24.0182 21.8203 23.6585 21.5926C23.2988 21.365 22.8721 21.3686 22.5382 21.6417C22.1965 21.921 22.0387 22.4558 21.5512 22.5128C21.2601 22.5467 21.0063 22.4243 20.7536 22.3192C19.1745 21.6621 18.2123 20.4421 17.6414 18.8733C17.5672 18.6695 17.5727 18.4484 17.6879 18.2609C17.7509 18.1584 17.8374 18.082 17.9294 18.0063C18.0342 17.92 18.1367 17.8303 18.2492 17.7538C18.7122 17.4393 18.7822 16.8744 18.5268 16.4122C18.1114 15.6609 17.5984 14.9795 17.04 14.3313ZM20.4515 13.3471L20.3683 13.3484C20.1649 13.3594 19.9846 13.5295 20.0227 13.7431C20.0681 13.9979 20.3366 14.0103 20.5416 14.0318C20.8658 14.0659 21.1934 14.0809 21.5135 14.138C23.6408 14.5174 25.345 16.2855 25.642 18.4227C25.6982 18.8275 25.7187 19.2376 25.7483 19.6458C25.7632 19.8521 25.8667 20.0445 26.0966 20.0418C26.3193 20.0391 26.4361 19.843 26.42 19.6367C26.3818 19.1462 26.3511 18.6521 26.2651 18.1688C25.7601 15.3325 23.4038 13.4285 20.5348 13.3481L20.4515 13.3471ZM20.8886 14.8809C20.6882 14.8696 20.5539 15.0019 20.5451 15.1857C20.5357 15.3819 20.642 15.5088 20.8411 15.5364C21.0054 15.5593 21.1706 15.5757 21.3341 15.6028C21.7082 15.6647 22.0773 15.7685 22.4186 15.9357C22.983 16.2121 23.4643 16.6689 23.7792 17.2122C24.0857 17.7409 24.2177 18.348 24.2188 18.9556C24.2189 19.0485 24.2234 19.1466 24.2532 19.2329C24.3537 19.5236 24.7904 19.4875 24.8666 19.1995C24.8875 19.1201 24.89 19.0359 24.8948 19.0001C24.8927 19.016 24.8902 18.9789 24.889 18.9501L24.8886 18.9206C24.889 18.918 24.8899 18.925 24.8916 18.9494L24.8868 18.8607C24.8795 18.7287 24.8734 18.6167 24.865 18.5048C24.8604 18.4444 24.846 18.3847 24.837 18.3245C24.6385 16.9959 23.9586 16.0009 22.7683 15.3706C22.1829 15.0606 21.547 14.9183 20.8886 14.8809ZM21.3491 16.4529C21.1711 16.44 21.0127 16.5671 20.9854 16.73C20.9554 16.909 21.0609 17.0634 21.2517 17.1102C21.4273 17.1532 21.6102 17.1393 21.7862 17.1901C21.9248 17.2301 22.0572 17.2921 22.1739 17.3772C22.4212 17.5573 22.5775 17.8298 22.6496 18.1238C22.6863 18.2731 22.6998 18.4286 22.7171 18.582C22.7418 18.8021 22.8703 18.9349 23.1103 18.9306L23.0863 18.9289L23.1055 18.9283L23.1213 18.9279L23.1648 18.9212C23.2368 18.9009 23.3041 18.8497 23.3431 18.7655L23.3667 18.6961C23.3873 18.6077 23.3778 18.51 23.3698 18.4176C23.2564 17.1082 22.4614 16.5332 21.3491 16.4529Z" fill="white"/>
</g>
</svg>
